<?xml version="1.0" encoding="utf-8"?>
<svg width="800px" height="800px" viewBox="0 0 24 24" fill="none" xmlns="http://www.w3.org/2000/svg">
  <path d="M 9.707 17.293 C 10.098 17.683 10.098 18.317 9.707 18.707 C 9.317 19.098 8.683 19.098 8.293 18.707 L 2.293 12.707 C 1.902 12.317 1.902 11.683 2.293 11.293 L 8.293 5.293 C 8.683 4.902 9.317 4.902 9.707 5.293 C 10.098 5.683 10.098 6.317 9.707 6.707 L 5.414 11 L 21 11 C 21.552 11 22 11.448 22 12 C 22 12.552 21.552 13 21 13 L 5.414 13 L 9.707 17.293 Z" style="fill: rgb(158, 158, 158);" transform="matrix(-1, 0, 0, -1, 23.99975, 24)"/>
</svg>