<?xml version="1.0" encoding="utf-8"?>
<svg version="1.0" id="svg2" width="122.76px" height="128px" viewBox="0 0 128 128" xmlns="http://www.w3.org/2000/svg">
  <g transform="matrix(1, 0, 0, 1, 8.399596, 7.799895)">
    <path style="fill: rgb(55, 117, 168);" d="M 54.919 0.001 C 50.335 0.022 45.958 0.413 42.106 1.095 C 30.76 3.099 28.7 7.295 28.7 15.032 L 28.7 25.251 L 55.513 25.251 L 55.513 28.657 L 28.7 28.657 L 18.638 28.657 C 10.845 28.657 4.022 33.341 1.888 42.251 C -0.574 52.464 -0.683 58.837 1.888 69.501 C 3.793 77.439 8.345 83.095 16.138 83.095 L 25.356 83.095 L 25.356 70.845 C 25.356 61.995 33.013 54.188 42.106 54.188 L 68.888 54.188 C 76.342 54.188 82.294 48.05 82.294 40.563 L 82.294 15.032 C 82.294 7.766 76.164 2.307 68.888 1.095 C 64.282 0.328 59.502 -0.02 54.919 0.001 Z M 40.419 8.22 C 43.188 8.22 45.45 10.518 45.45 13.345 C 45.45 16.161 43.188 18.438 40.419 18.438 C 37.639 18.438 35.388 16.161 35.388 13.345 C 35.388 10.518 37.639 8.22 40.419 8.22 Z" id="path1948"/>
    <path style="fill-opacity: 1; fill: rgb(255, 209, 65);" d="M 85.638 28.657 L 85.638 40.563 C 85.638 49.794 77.812 57.563 68.888 57.563 L 42.106 57.563 C 34.77 57.563 28.7 63.842 28.7 71.188 L 28.7 96.72 C 28.7 103.986 35.019 108.26 42.106 110.345 C 50.594 112.84 58.733 113.291 68.888 110.345 C 75.638 108.39 82.294 104.457 82.294 96.72 L 82.294 86.501 L 55.513 86.501 L 55.513 83.095 L 82.294 83.095 L 95.7 83.095 C 103.493 83.095 106.396 77.659 109.106 69.501 C 111.906 61.102 111.787 53.025 109.106 42.251 C 107.181 34.493 103.502 28.657 95.7 28.657 Z M 70.575 93.313 C 73.355 93.313 75.606 95.591 75.606 98.407 C 75.606 101.234 73.355 103.532 70.575 103.532 C 67.805 103.532 65.544 101.234 65.544 98.407 C 65.544 95.591 67.805 93.313 70.575 93.313 Z" id="path1950"/>
  </g>
</svg>